<?xml version="1.0" encoding="UTF-8"?>
<!DOCTYPE svg PUBLIC "-//W3C//DTD SVG 1.1//EN" "http://www.w3.org/Graphics/SVG/1.1/DTD/svg11.dtd">
<!-- Creator: CorelDRAW 2019 (64-Bit) -->
<svg>
 <g id="Слой_x0020_1">
  <metadata id="CorelCorpID_0Corel-Layer"/>
  <g id="_2730127840560">
   <path class="fil0" d="M13027.69 16229.14c-268.68,0 -539.03,-94.83 -754.65,-286.17l-2115.54 -1781.95 -1649.87 0c-1245.16,0 -2257.78,-1012.61 -2257.78,-2257.78l0 -6773.89c-0.56,-1245.16 1012.05,-2257.77 2257.21,-2257.77l9031.11 0c1245.16,0 2257.78,1012.61 2257.78,2257.78l0 6773.32c0,1245.16 -1012.61,2257.78 -2257.78,2257.78l-1609.8 0 -2171.42 1794.93c-204.33,181.75 -465.67,273.19 -729.83,273.19l0.57 0.56zm-4520.63 -12228.67c-622.58,0 -1128.89,506.31 -1128.89,1128.89l0 6773.32c0,622.58 506.31,1128.89 1128.89,1128.89l1856.46 0c133.21,0 261.9,46.85 364.07,132.64l2284.3 1924.76 2353.73 -1928.14c101.6,-83.54 228.6,-129.26 360.12,-129.26l1812.99 0c622.58,0 1128.89,-506.31 1128.89,-1128.89l0 -6773.33c0,-622.58 -506.31,-1128.89 -1128.89,-1128.89l-9031.67 0.01z"/>
  </g>
 </g>
</svg>
