<?xml version="1.0" encoding="utf-8"?>
<!-- Generator: Adobe Illustrator 26.0.2, SVG Export Plug-In . SVG Version: 6.00 Build 0)  -->
<svg version="1.1" id="Filled" xmlns="http://www.w3.org/2000/svg" xmlns:xlink="http://www.w3.org/1999/xlink" x="0px" y="0px"
	 viewBox="0 0 512 512" style="enable-background:new 0 0 512 512;" xml:space="preserve">
<style type="text/css">
	.st0{fill:#2C3E50;}
</style>
<path class="st0" d="M213.3,256c0,11.8-9.6,21.3-21.3,21.3H86.8c11.7,93.4,96.9,159.7,190.4,148c77.4-9.7,138.3-70.6,148-148H320
	c-11.8,0-21.3-9.6-21.3-21.3c0-11.8,9.6-21.3,21.3-21.3h106.7V192H320c-11.8,0-21.3-9.6-21.3-21.3c0-11.8,9.6-21.3,21.3-21.3h105.2
	c-11.7-93.4-96.9-159.7-190.4-148C157.4,11,96.5,72,86.8,149.3H192c11.8,0,21.3,9.6,21.3,21.3c0,11.8-9.6,21.3-21.3,21.3H85.3v42.7
	H192C203.8,234.7,213.3,244.2,213.3,256z"/>
<path class="st0" d="M490.7,256c-11.8,0-21.3,9.6-21.3,21.3c-0.1,106-86,191.9-192,192h-42.7c-106-0.1-191.9-86-192-192
	c0-11.8-9.6-21.3-21.3-21.3S0,265.6,0,277.3C0.2,406.9,105.1,511.8,234.7,512h42.7c129.5-0.2,234.5-105.1,234.7-234.7
	C512,265.6,502.4,256,490.7,256z"/>
</svg>
