<?xml version="1.0" encoding="utf-8"?>
<!-- Generator: Adobe Illustrator 26.0.2, SVG Export Plug-In . SVG Version: 6.00 Build 0)  -->
<svg version="1.1" id="Outline" xmlns="http://www.w3.org/2000/svg" xmlns:xlink="http://www.w3.org/1999/xlink" x="0px" y="0px"
	 viewBox="0 0 512 512" style="enable-background:new 0 0 512 512;" xml:space="preserve">
<style type="text/css">
	.st0{fill:#2C3E50;}
</style>
<path class="st0" d="M256,426.7c94.2-0.1,170.6-76.5,170.7-170.7v-85.3C426.7,76.4,350.3,0,256,0S85.3,76.4,85.3,170.7V256
	C85.4,350.2,161.8,426.6,256,426.7z M256,42.7c62.4,0.1,115.6,45.2,126.1,106.7H320c-11.8,0-21.3,9.6-21.3,21.3
	c0,11.8,9.6,21.3,21.3,21.3h64v42.7h-64c-11.8,0-21.3,9.6-21.3,21.3c0,11.8,9.6,21.3,21.3,21.3h62.1
	c-11.7,69.6-77.7,116.6-147.3,104.9c-53.7-9-95.8-51.1-104.9-104.9H192c11.8,0,21.3-9.6,21.3-21.3c0-11.8-9.6-21.3-21.3-21.3h-64
	V192h64c11.8,0,21.3-9.6,21.3-21.3c0-11.8-9.6-21.3-21.3-21.3h-62.1C140.4,87.8,193.6,42.8,256,42.7z"/>
<path class="st0" d="M490.7,256c-11.8,0-21.3,9.6-21.3,21.3c-0.1,106-86,191.9-192,192h-42.7c-106-0.1-191.9-86-192-192
	c0-11.8-9.6-21.3-21.3-21.3S0,265.6,0,277.3C0.2,406.9,105.1,511.8,234.7,512h42.7c129.5-0.2,234.5-105.1,234.7-234.7
	C512,265.6,502.4,256,490.7,256z"/>
</svg>
